HIERARCHY
ROOT hip
{
  OFFSET 0 0 0
  CHANNELS 6 Xposition Yposition Zposition Zrotation Yrotation Xrotation
  JOINT abdomen
  {
    OFFSET 0 20.6881 -0.73152
    CHANNELS 3 Zrotation Xrotation Yrotation
    JOINT chest
    {
      OFFSET 0 11.7043 -0.48768
      CHANNELS 3 Zrotation Xrotation Yrotation
      JOINT neck
      {
        OFFSET 0 22.1894 -2.19456
        CHANNELS 3 Zrotation Xrotation Yrotation
        JOINT head
        {
          OFFSET -0.24384 7.07133 1.2192
          CHANNELS 3 Zrotation Xrotation Yrotation
          JOINT leftEye
          {
            OFFSET 4.14528 8.04674 8.04672
            CHANNELS 3 Zrotation Xrotation Yrotation
            End Site
            {
              OFFSET 1 0 0
            }
          }
          JOINT rightEye
          {
            OFFSET -3.6576 8.04674 8.04672
            CHANNELS 3 Zrotation Xrotation Yrotation
            End Site
            {
              OFFSET 1 0 0
            }
          }
        }
      }
      JOINT rCollar
      {
        OFFSET -2.68224 19.2634 -4.8768
        CHANNELS 3 Zrotation Xrotation Yrotation
        JOINT rShldr
        {
          OFFSET -8.77824 -1.95073 1.46304
          CHANNELS 3 Zrotation Xrotation Yrotation
          JOINT rForeArm
          {
            OFFSET -28.1742 -1.7115 0.48768
            CHANNELS 3 Zrotation Xrotation Yrotation
            JOINT rHand
            {
              OFFSET -22.5879 0.773209 7.07136
              CHANNELS 3 Zrotation Xrotation Yrotation
              JOINT rThumb1
              {
                OFFSET -1.2192 -0.487915 3.41376
                CHANNELS 3 Zrotation Xrotation Yrotation
                JOINT rThumb2
                {
                  OFFSET -3.37035 -0.52449 3.41376
                  CHANNELS 3 Zrotation Xrotation Yrotation
                  End Site
                  {
                    OFFSET -1.78271 -1.18214 1.43049
                  }
                }
              }
              JOINT rIndex1
              {
                OFFSET -7.75947 0.938293 5.60832
                CHANNELS 3 Zrotation Xrotation Yrotation
                JOINT rIndex2
                {
                  OFFSET -2.54057 -0.884171 1.56538
                  CHANNELS 3 Zrotation Xrotation Yrotation
                  End Site
                  {
                    OFFSET -1.62519 -0.234802 1.16502
                  }
                }
              }
              JOINT rMid1
              {
                OFFSET -8.24714 1.18213 3.41376
                CHANNELS 3 Zrotation Xrotation Yrotation
                JOINT rMid2
                {
                  OFFSET -3.10165 -0.590103 1.0647
                  CHANNELS 3 Zrotation Xrotation Yrotation
                  End Site
                  {
                    OFFSET -2.48547 -0.328903 0.83742
                  }
                }
              }
              JOINT rRing1
              {
                OFFSET -8.82822 0.546677 1.51678
                CHANNELS 3 Zrotation Xrotation Yrotation
                JOINT rRing2
                {
                  OFFSET -2.60934 -0.819778 -0.0198488
                  CHANNELS 3 Zrotation Xrotation Yrotation
                  End Site
                  {
                    OFFSET -2.33842 -0.294052 0.168128
                  }
                }
              }
              JOINT rPinky1
              {
                OFFSET -8.27202 -0.0477905 -0.4584
                CHANNELS 3 Zrotation Xrotation Yrotation
                JOINT rPinky2
                {
                  OFFSET -1.82734 -0.647385 -0.700984
                  CHANNELS 3 Zrotation Xrotation Yrotation
                  End Site
                  {
                    OFFSET -1.69225 -0.51767 -0.607171
                  }
                }
              }
            }
          }
        }
      }
      JOINT lCollar
      {
        OFFSET 2.68224 19.2634 -4.8768
        CHANNELS 3 Zrotation Xrotation Yrotation
        JOINT lShldr
        {
          OFFSET 8.77824 -1.95073 1.46304
          CHANNELS 3 Zrotation Xrotation Yrotation
          JOINT lForeArm
          {
            OFFSET 28.1742 -1.7115 0.48768
            CHANNELS 3 Zrotation Xrotation Yrotation
            JOINT lHand
            {
              OFFSET 22.5879 0.773209 7.07136
              CHANNELS 3 Zrotation Xrotation Yrotation
              JOINT lThumb1
              {
                OFFSET 1.2192 -0.487915 3.41376
                CHANNELS 3 Zrotation Xrotation Yrotation
                JOINT lThumb2
                {
                  OFFSET 3.37035 -0.52449 3.41376
                  CHANNELS 3 Zrotation Xrotation Yrotation
                  End Site
                  {
                    OFFSET 1.78271 -1.18214 1.43049
                  }
                }
              }
              JOINT lIndex1
              {
                OFFSET 7.75947 0.938293 5.60832
                CHANNELS 3 Zrotation Xrotation Yrotation
                JOINT lIndex2
                {
                  OFFSET 2.54057 -0.884171 1.56538
                  CHANNELS 3 Zrotation Xrotation Yrotation
                  End Site
                  {
                    OFFSET 1.62519 -0.234802 1.16502
                  }
                }
              }
              JOINT lMid1
              {
                OFFSET 8.24714 1.18213 3.41376
                CHANNELS 3 Zrotation Xrotation Yrotation
                JOINT lMid2
                {
                  OFFSET 3.10165 -0.590103 1.0647
                  CHANNELS 3 Zrotation Xrotation Yrotation
                  End Site
                  {
                    OFFSET 2.48547 -0.328903 0.83742
                  }
                }
              }
              JOINT lRing1
              {
                OFFSET 8.82822 0.546677 1.51678
                CHANNELS 3 Zrotation Xrotation Yrotation
                JOINT lRing2
                {
                  OFFSET 2.60934 -0.819778 -0.0198488
                  CHANNELS 3 Zrotation Xrotation Yrotation
                  End Site
                  {
                    OFFSET 2.33842 -0.294052 0.168128
                  }
                }
              }
              JOINT lPinky1
              {
                OFFSET 8.27202 -0.0477905 -0.4584
                CHANNELS 3 Zrotation Xrotation Yrotation
                JOINT lPinky2
                {
                  OFFSET 1.82734 -0.647385 -0.700984
                  CHANNELS 3 Zrotation Xrotation Yrotation
                  End Site
                  {
                    OFFSET 1.69225 -0.51767 -0.607171
                  }
                }
              }
            }
          }
        }
      }
    }
  }
  JOINT rButtock
  {
    OFFSET -8.77824 4.35084 1.2192
    CHANNELS 3 Zrotation Xrotation Yrotation
    JOINT rThigh
    {
      OFFSET 0 -1.70687 -2.19456
      CHANNELS 3 Zrotation Xrotation Yrotation
      JOINT rShin
      {
        OFFSET 0 -36.8199 0.73152
        CHANNELS 3 Zrotation Xrotation Yrotation
        JOINT rFoot
        {
          OFFSET 0.73152 -45.1104 -5.12064
          CHANNELS 3 Zrotation Xrotation Yrotation
          End Site
          {
            OFFSET -1.1221 -3.69964 12.103
          }
        }
      }
    }
  }
  JOINT lButtock
  {
    OFFSET 8.77824 4.35084 1.2192
    CHANNELS 3 Zrotation Xrotation Yrotation
    JOINT lThigh
    {
      OFFSET 0 -1.70687 -2.19456
      CHANNELS 3 Zrotation Xrotation Yrotation
      JOINT lShin
      {
        OFFSET 0 -36.8199 0.73152
        CHANNELS 3 Zrotation Xrotation Yrotation
        JOINT lFoot
        {
          OFFSET -0.73152 -45.1104 -5.12064
          CHANNELS 3 Zrotation Xrotation Yrotation
          End Site
          {
            OFFSET 1.1221 -3.69964 12.103
          }
        }
      }
    }
  }
}
MOTION
Frames:	8
Frame Time:	0.00833333
-31.8542 82.7622 -38.8925 -186.219 25.1289 -158.727 -3.13008 -27.9369 -8.21866 2.85924 15.9822 -2.33281 10.6557 10.169 0.519852 -19.4667 11.6664 6.90767 -0.0 0.0 0.0 -0.0 0.0 0.0 3.24056e-13 4.57709e-13 -1.44959e-13 81.2013 13.4426 -6.19084 -19.2463 -12.094 36.8753 -0.195141 -12.5239 -1.78871 -2.41347e-09 -4.27789e-10 -9.33124e-10 -4.15604e-09 -7.51037e-10 -1.63696e-09 -2.41345e-09 -4.27791e-10 -9.33143e-10 7.73091 5.47488 0.417314 -2.41347e-09 -4.27791e-10 -9.33129e-10 2.90554 0.965183 0.102902 -2.41347e-09 -4.27791e-10 -9.3313e-10 10.2786 0.731801 0.0259123 -2.41347e-09 -4.27788e-10 -9.33126e-10 2.22167 -0.733487 -0.20892 3.24011e-13 4.57695e-13 -1.4523e-13 -74.9666 23.2991 -3.77521 9.89072 -4.07547 -17.5962 0.0437928 5.9606 -0.840775 -2.42692e-09 -2.93634e-09 -1.21005e-09 -4.19928e-09 -5.06789e-09 -2.07736e-09 -2.42693e-09 -2.93636e-09 -1.21005e-09 -7.73091 5.47488 -0.417314 -2.42692e-09 -2.93633e-09 -1.21004e-09 -2.90554 0.965183 -0.102902 -2.42693e-09 -2.93633e-09 -1.21005e-09 -10.2786 0.731801 -0.0259123 -2.42692e-09 -2.93633e-09 -1.21006e-09 -2.22167 -0.733487 0.20892 -2.03217e-16 0.0 -3.88251e-19 3.05723 -32.6696 12.6312 -0.0197275 13.5169 0.186414 0.62935 -9.22463 5.34673 2.03217e-16 0.0 3.88251e-19 -2.5936 -36.7781 -19.1252 0.120025 22.0739 -0.327734 1.25732 -5.86024 4.58238
-31.8099 82.7854 -39.3555 -186.217 25.7445 -158.9 -3.22291 -27.9704 -8.42943 2.77597 15.9698 -2.37363 10.7603 9.9087 0.583504 -19.6668 12.0004 7.03969 -0.0 0.0 0.0 -0.0 0.0 0.0 3.68152e-13 5.35933e-13 -2.00226e-13 81.1101 12.764 -6.30409 -19.085 -11.9028 36.5024 -0.175706 -11.8607 -1.69139 -2.68689e-09 -4.22056e-10 -1.29213e-09 -4.62549e-09 -7.41168e-10 -2.26186e-09 -2.68688e-09 -4.2206e-10 -1.29214e-09 7.73091 5.47488 0.417314 -2.68689e-09 -4.22059e-10 -1.29213e-09 2.90554 0.965183 0.102902 -2.68689e-09 -4.2206e-10 -1.29213e-09 10.2786 0.731801 0.0259123 -2.6869e-09 -4.22057e-10 -1.29213e-09 2.22167 -0.733487 -0.20892 3.68071e-13 5.35915e-13 -2.00474e-13 -74.8172 23.2881 -3.86674 9.82762 -4.03723 -17.4786 0.0434896 5.9413 -0.838031 -2.65718e-09 -3.65624e-09 -1.46205e-09 -4.59806e-09 -6.31254e-09 -2.51176e-09 -2.65718e-09 -3.65627e-09 -1.46205e-09 -7.73091 5.47488 -0.417314 -2.65717e-09 -3.65624e-09 -1.46204e-09 -2.90554 0.965183 -0.102902 -2.65718e-09 -3.65624e-09 -1.46205e-09 -10.2786 0.731801 -0.0259123 -2.65717e-09 -3.65624e-09 -1.46205e-09 -2.22167 -0.733487 0.20892 -2.03217e-16 0.0 -3.88251e-19 2.98273 -32.5431 13.1286 -0.020013 13.63 0.190714 0.658519 -9.41369 5.37126 2.03217e-16 0.0 3.88251e-19 -2.67815 -36.6718 -19.3827 0.111949 21.1186 -0.310911 1.16511 -5.79631 4.11371
-31.7665 82.7919 -39.711 -186.099 26.2552 -158.867 -3.1542 -27.9934 -8.63058 2.65363 15.925 -2.41661 10.8297 9.67326 0.640093 -19.849 12.3263 7.16792 -0.0 0.0 0.0 -0.0 0.0 0.0 3.81776e-13 4.9175e-13 -5.60807e-13 81.0027 12.1206 -6.50693 -18.9576 -11.7541 36.2074 -0.160501 -11.3114 -1.61113 -1.73046e-09 -1.14933e-09 -2.93024e-09 -2.95564e-09 -2.00117e-09 -5.09448e-09 -1.73045e-09 -1.14934e-09 -2.93025e-09 7.73091 5.47488 0.417314 -1.73046e-09 -1.14934e-09 -2.93024e-09 2.90554 0.965183 0.102902 -1.73046e-09 -1.14934e-09 -2.93024e-09 10.2786 0.731801 0.0259123 -1.73047e-09 -1.14933e-09 -2.93024e-09 2.22167 -0.733487 -0.20892 3.81708e-13 4.91738e-13 -5.61018e-13 -74.7057 23.3154 -3.88779 9.80206 -4.02176 -17.431 0.0419026 5.83573 -0.823029 -1.03186e-09 -5.1785e-09 -1.92001e-09 -1.7914e-09 -8.95753e-09 -3.31303e-09 -1.03187e-09 -5.17853e-09 -1.92001e-09 -7.73091 5.47488 -0.417314 -1.03186e-09 -5.17851e-09 -1.92e-09 -2.90554 0.965183 -0.102902 -1.03186e-09 -5.17851e-09 -1.92001e-09 -10.2786 0.731801 -0.0259123 -1.03185e-09 -5.1785e-09 -1.92002e-09 -2.22167 -0.733487 0.20892 -2.03217e-16 0.0 -3.88251e-19 2.96265 -32.4051 13.5185 -0.0205043 13.7647 0.194937 0.702899 -9.61665 5.4699 2.03217e-16 0.0 3.88251e-19 -2.68765 -36.6458 -19.4022 0.105886 20.414 -0.298638 1.11053 -5.66982 3.86986
-31.6594 82.8166 -40.217 -185.792 26.9027 -159.16 -2.96472 -28.0063 -8.82531 2.49953 15.8621 -2.46124 10.8754 9.44996 0.694399 -20.0126 12.6525 7.29838 -0.0 0.0 0.0 -0.0 0.0 0.0 3.74684e-13 3.65267e-13 -1.12679e-12 80.8785 11.4609 -6.77121 -18.8458 -11.6256 35.9475 -0.146424 -10.767 -1.53193 4.00906e-11 -2.35286e-09 -5.42471e-09 1.30314e-10 -4.08604e-09 -9.40523e-09 4.00949e-11 -2.35286e-09 -5.42472e-09 7.73091 5.47488 0.417314 4.00913e-11 -2.35286e-09 -5.42471e-09 2.90554 0.965183 0.102902 4.00935e-11 -2.35286e-09 -5.42471e-09 10.2786 0.731801 0.0259123 4.00815e-11 -2.35286e-09 -5.4247e-09 2.22167 -0.733487 -0.20892 3.74659e-13 3.65267e-13 -1.12695e-12 -74.6125 23.3782 -3.87395 9.79867 -4.01974 -17.4247 0.0395468 5.67139 -0.799694 1.82077e-09 -7.26127e-09 -2.53293e-09 3.13526e-09 -1.25803e-08 -4.38932e-09 1.82076e-09 -7.26129e-09 -2.53293e-09 -7.73091 5.47488 -0.417314 1.82077e-09 -7.26127e-09 -2.53292e-09 -2.90554 0.965183 -0.102902 1.82076e-09 -7.26127e-09 -2.53293e-09 -10.2786 0.731801 -0.0259123 1.82077e-09 -7.26127e-09 -2.53294e-09 -2.22167 -0.733487 0.20892 -2.03217e-16 0.0 -3.88251e-19 2.99171 -32.2634 13.8599 -0.0212429 13.9381 0.198991 0.754609 -9.83895 5.59489 2.03217e-16 0.0 3.88251e-19 -2.64766 -36.6908 -19.224 0.101199 19.946 -0.290385 1.08263 -5.51755 3.7766
-31.7165 82.8642 -40.4464 -185.915 27.0954 -159.001 -2.77473 -28.0359 -9.05152 2.34176 15.8093 -2.51396 10.9054 9.24836 0.746576 -20.1514 12.9548 7.42309 -0.0 0.0 0.0 -0.0 0.0 0.0 3.3909e-13 2.08817e-13 -1.63502e-12 80.7682 10.8707 -7.05066 -18.75 -11.5165 35.7248 -0.138425 -10.4612 -1.48747 1.83176e-09 -3.47036e-09 -7.64397e-09 3.24944e-09 -6.02152e-09 -1.32386e-08 1.83176e-09 -3.47036e-09 -7.64397e-09 7.73091 5.47488 0.417314 1.83176e-09 -3.47036e-09 -7.64397e-09 2.90554 0.965183 0.102902 1.83177e-09 -3.47036e-09 -7.64397e-09 10.2786 0.731801 0.0259123 1.83175e-09 -3.47036e-09 -7.64396e-09 2.22167 -0.733487 -0.20892 3.3911e-13 2.0883e-13 -1.63514e-12 -74.5262 23.4276 -3.8548 9.80806 -4.02545 -17.4422 0.0375388 5.52335 -0.778692 4.60914e-09 -8.91013e-09 -2.9546e-09 7.95178e-09 -1.54517e-08 -5.1347e-09 4.60914e-09 -8.91014e-09 -2.9546e-09 -7.73091 5.47488 -0.417314 4.60914e-09 -8.91013e-09 -2.9546e-09 -2.90554 0.965183 -0.102902 4.60913e-09 -8.91013e-09 -2.95461e-09 -10.2786 0.731801 -0.0259123 4.60915e-09 -8.91013e-09 -2.95462e-09 -2.22167 -0.733487 0.20892 -2.03217e-16 0.0 -3.88251e-19 3.00879 -32.1392 14.1852 -0.0220333 14.1269 0.203133 0.800302 -10.0747 5.68723 2.03217e-16 0.0 3.88251e-19 -2.65266 -36.8136 -19.004 0.0977525 19.6596 -0.285239 1.06697 -5.37829 3.74273
-31.813 82.8846 -40.7249 -186.217 27.342 -159.012 -2.70516 -28.1085 -9.34744 2.20854 15.7945 -2.58119 10.9276 9.07804 0.796781 -20.2589 13.2089 7.53394 -0.0 0.0 0.0 -0.0 0.0 0.0 2.67205e-13 7.47339e-14 -1.82236e-12 80.7064 10.4357 -7.29929 -18.6702 -11.4258 35.5414 -0.140572 -10.628 -1.51122 2.85156e-09 -3.93955e-09 -8.45644e-09 5.01882e-09 -6.83336e-09 -1.4639e-08 2.85156e-09 -3.93956e-09 -8.45644e-09 7.73091 5.47488 0.417314 2.85156e-09 -3.93955e-09 -8.45644e-09 2.90554 0.965183 0.102902 2.85157e-09 -3.93956e-09 -8.45644e-09 10.2786 0.731801 0.0259123 2.85155e-09 -3.93955e-09 -8.45643e-09 2.22167 -0.733487 -0.20892 2.67245e-13 7.47529e-14 -1.82246e-12 -74.4349 23.4144 -3.85998 9.8208 -4.03316 -17.4659 0.0367936 5.46671 -0.770659 6.04171e-09 -9.13067e-09 -2.83883e-09 1.0428e-08 -1.58423e-08 -4.94326e-09 6.0417e-09 -9.13067e-09 -2.83883e-09 -7.73091 5.47488 -0.417314 6.04171e-09 -9.13067e-09 -2.83883e-09 -2.90554 0.965183 -0.102902 6.0417e-09 -9.13067e-09 -2.83884e-09 -10.2786 0.731801 -0.0259123 6.04171e-09 -9.13067e-09 -2.83885e-09 -2.22167 -0.733487 0.20892 -2.03217e-16 0.0 -3.88251e-19 2.95307 -32.0535 14.5269 -0.0226768 14.3075 0.207621 0.82559 -10.3181 5.68776 2.03217e-16 0.0 3.88251e-19 -2.79757 -37.0218 -18.8986 0.095531 19.4998 -0.28235 1.04983 -5.29072 3.67706
-31.8522 82.9381 -41.0447 -186.408 27.5565 -159.209 -2.83613 -28.2791 -9.78427 2.10957 15.8431 -2.67756 10.931 8.95264 0.84974 -20.3286 13.3981 7.63913 -0.0 0.0 0.0 -0.0 0.0 0.0 1.17014e-13 -3.92178e-14 -1.49593e-12 80.7295 10.3199 -7.49592 -18.628 -11.3772 35.4473 -0.165952 -11.7237 -1.66999 2.71996e-09 -3.40565e-09 -7.02781e-09 4.77254e-09 -5.90652e-09 -1.21629e-08 2.71996e-09 -3.40565e-09 -7.02781e-09 7.73091 5.47488 0.417314 2.71996e-09 -3.40565e-09 -7.02781e-09 2.90554 0.965183 0.102902 2.71997e-09 -3.40565e-09 -7.02781e-09 10.2786 0.731801 0.0259123 2.71995e-09 -3.40565e-09 -7.0278e-09 2.22167 -0.733487 -0.20892 1.17031e-13 -3.92021e-14 -1.49605e-12 -74.3315 23.3331 -3.89124 9.8365 -4.0426 -17.4953 0.0374326 5.50453 -0.776039 5.37382e-09 -6.90339e-09 -1.69828e-09 9.27996e-09 -1.19826e-08 -2.96844e-09 5.37382e-09 -6.90338e-09 -1.69828e-09 -7.73091 5.47488 -0.417314 5.37382e-09 -6.90339e-09 -1.69828e-09 -2.90554 0.965183 -0.102902 5.37381e-09 -6.90339e-09 -1.69828e-09 -10.2786 0.731801 -0.0259123 5.37383e-09 -6.90339e-09 -1.69829e-09 -2.22167 -0.733487 0.20892 -2.03217e-16 0.0 -3.88251e-19 2.79889 -32.0674 14.9393 -0.023256 14.5149 0.213226 0.809227 -10.5991 5.49629 2.03217e-16 0.0 3.88251e-19 -3.16234 -37.3888 -18.9307 0.0947633 19.5021 -0.282247 1.02831 -5.2755 3.55507
-31.9752 82.8536 -41.1943 -186.569 27.6688 -158.851 -3.0911 -28.5158 -10.3232 2.02946 15.9341 -2.79544 10.9157 8.86337 0.903831 -20.3649 13.5388 7.73926 -0.0 0.0 0.0 -0.0 0.0 0.0 -9.40178e-14 -1.55552e-13 -8.36989e-13 80.8146 10.4302 -7.66837 -18.617 -11.364 35.4247 -0.220867 -13.4917 -1.93049 1.91591e-09 -2.23681e-09 -4.1391e-09 3.3472e-09 -3.87901e-09 -7.16066e-09 1.91591e-09 -2.23681e-09 -4.1391e-09 7.73091 5.47488 0.417314 1.91592e-09 -2.23681e-09 -4.1391e-09 2.90554 0.965183 0.102902 1.91592e-09 -2.23681e-09 -4.1391e-09 10.2786 0.731801 0.0259123 1.9159e-09 -2.23681e-09 -4.13909e-09 2.22167 -0.733487 -0.20892 -9.4048e-14 -1.55546e-13 -8.37157e-13 -74.2236 23.2073 -3.93477 9.85944 -4.0564 -17.5382 0.038988 5.60242 -0.789954 3.42773e-09 -3.01008e-09 1.50739e-10 5.92674e-09 -5.23103e-09 2.3829e-10 3.42772e-09 -3.01008e-09 1.5074e-10 -7.73091 5.47488 -0.417314 3.42773e-09 -3.01008e-09 1.50737e-10 -2.90554 0.965183 -0.102902 3.42772e-09 -3.01008e-09 1.50736e-10 -10.2786 0.731801 -0.0259123 3.42773e-09 -3.01008e-09 1.50733e-10 -2.22167 -0.733487 0.20892 -2.03217e-16 0.0 -3.88251e-19 2.5845 -32.1503 15.3912 -0.0238537 14.7478 0.219583 0.761423 -10.9104 5.17197 2.03217e-16 0.0 3.88251e-19 -3.67993 -37.8866 -19.0256 0.095322 19.6791 -0.285104 1.009 -5.30859 3.4254
